<mxfile host="app.diagrams.net" modified="2024-08-09T12:54:58.500Z" agent="Mozilla/5.0 (Windows NT 10.0; Win64; x64) AppleWebKit/537.36 (KHTML, like Gecko) Chrome/127.0.0.0 Safari/537.36" etag="L1b-kQvumaO9WBPVRwd_" version="24.3.1" type="device">
  <diagram name="Page-1" id="Bxei3aPrLeC2Twklt-ty">
    <mxGraphModel dx="1120" dy="500" grid="1" gridSize="10" guides="1" tooltips="1" connect="1" arrows="1" fold="1" page="1" pageScale="1" pageWidth="850" pageHeight="1100" math="0" shadow="0">
      <root>
        <mxCell id="0" />
        <mxCell id="1" parent="0" />
        <mxCell id="AnCnLKGEOdJfXO4lwvP3-1" value="Lib" style="whiteSpace=wrap;html=1;strokeColor=#FFFFFF;" vertex="1" parent="1">
          <mxGeometry x="30" y="20" width="120" height="60" as="geometry" />
        </mxCell>
        <mxCell id="AnCnLKGEOdJfXO4lwvP3-4" value="DI&lt;div&gt;(Dependency Injection)&lt;/div&gt;" style="rounded=1;whiteSpace=wrap;html=1;" vertex="1" parent="1">
          <mxGeometry x="290" y="150" width="120" height="40" as="geometry" />
        </mxCell>
        <mxCell id="AnCnLKGEOdJfXO4lwvP3-5" value="Networking&amp;nbsp;&lt;div&gt;(DIO+Retroft)&lt;/div&gt;" style="rounded=1;whiteSpace=wrap;html=1;" vertex="1" parent="1">
          <mxGeometry x="290" y="200" width="120" height="30" as="geometry" />
        </mxCell>
        <mxCell id="AnCnLKGEOdJfXO4lwvP3-6" value="Routing" style="rounded=1;whiteSpace=wrap;html=1;" vertex="1" parent="1">
          <mxGeometry x="290" y="240" width="120" height="20" as="geometry" />
        </mxCell>
        <mxCell id="AnCnLKGEOdJfXO4lwvP3-7" value="Features" style="rounded=1;whiteSpace=wrap;html=1;" vertex="1" parent="1">
          <mxGeometry x="150" y="370" width="120" height="20" as="geometry" />
        </mxCell>
        <mxCell id="AnCnLKGEOdJfXO4lwvP3-8" value="Helpers" style="rounded=1;whiteSpace=wrap;html=1;" vertex="1" parent="1">
          <mxGeometry x="290" y="270" width="120" height="20" as="geometry" />
        </mxCell>
        <mxCell id="AnCnLKGEOdJfXO4lwvP3-9" value="&lt;div&gt;widgets&lt;/div&gt;" style="rounded=1;whiteSpace=wrap;html=1;" vertex="1" parent="1">
          <mxGeometry x="290" y="330" width="120" height="20" as="geometry" />
        </mxCell>
        <mxCell id="AnCnLKGEOdJfXO4lwvP3-14" style="edgeStyle=orthogonalEdgeStyle;rounded=0;orthogonalLoop=1;jettySize=auto;html=1;exitX=0.5;exitY=1;exitDx=0;exitDy=0;entryX=0;entryY=0.5;entryDx=0;entryDy=0;" edge="1" parent="1" source="AnCnLKGEOdJfXO4lwvP3-10" target="AnCnLKGEOdJfXO4lwvP3-4">
          <mxGeometry relative="1" as="geometry" />
        </mxCell>
        <mxCell id="AnCnLKGEOdJfXO4lwvP3-10" value="Core" style="rounded=1;whiteSpace=wrap;html=1;" vertex="1" parent="1">
          <mxGeometry x="150" y="110" width="120" height="20" as="geometry" />
        </mxCell>
        <mxCell id="AnCnLKGEOdJfXO4lwvP3-11" value="themings" style="rounded=1;whiteSpace=wrap;html=1;" vertex="1" parent="1">
          <mxGeometry x="290" y="300" width="120" height="20" as="geometry" />
        </mxCell>
        <mxCell id="AnCnLKGEOdJfXO4lwvP3-15" value="" style="endArrow=none;html=1;rounded=0;entryX=0.25;entryY=1;entryDx=0;entryDy=0;" edge="1" parent="1" target="AnCnLKGEOdJfXO4lwvP3-10">
          <mxGeometry width="50" height="50" relative="1" as="geometry">
            <mxPoint x="180" y="340" as="sourcePoint" />
            <mxPoint x="450" y="160" as="targetPoint" />
          </mxGeometry>
        </mxCell>
        <mxCell id="AnCnLKGEOdJfXO4lwvP3-16" value="" style="endArrow=classic;html=1;rounded=0;entryX=0;entryY=0.5;entryDx=0;entryDy=0;" edge="1" parent="1" target="AnCnLKGEOdJfXO4lwvP3-5">
          <mxGeometry width="50" height="50" relative="1" as="geometry">
            <mxPoint x="180" y="215" as="sourcePoint" />
            <mxPoint x="230" y="170" as="targetPoint" />
          </mxGeometry>
        </mxCell>
        <mxCell id="AnCnLKGEOdJfXO4lwvP3-17" value="" style="endArrow=classic;html=1;rounded=0;entryX=0;entryY=0.5;entryDx=0;entryDy=0;" edge="1" parent="1" target="AnCnLKGEOdJfXO4lwvP3-6">
          <mxGeometry width="50" height="50" relative="1" as="geometry">
            <mxPoint x="180" y="250" as="sourcePoint" />
            <mxPoint x="460" y="170" as="targetPoint" />
          </mxGeometry>
        </mxCell>
        <mxCell id="AnCnLKGEOdJfXO4lwvP3-18" value="" style="endArrow=classic;html=1;rounded=0;entryX=0;entryY=0.5;entryDx=0;entryDy=0;" edge="1" parent="1" target="AnCnLKGEOdJfXO4lwvP3-8">
          <mxGeometry width="50" height="50" relative="1" as="geometry">
            <mxPoint x="180" y="280" as="sourcePoint" />
            <mxPoint x="470" y="180" as="targetPoint" />
          </mxGeometry>
        </mxCell>
        <mxCell id="AnCnLKGEOdJfXO4lwvP3-19" value="" style="endArrow=classic;html=1;rounded=0;entryX=0;entryY=0.5;entryDx=0;entryDy=0;" edge="1" parent="1" target="AnCnLKGEOdJfXO4lwvP3-11">
          <mxGeometry width="50" height="50" relative="1" as="geometry">
            <mxPoint x="180" y="310" as="sourcePoint" />
            <mxPoint x="480" y="190" as="targetPoint" />
          </mxGeometry>
        </mxCell>
        <mxCell id="AnCnLKGEOdJfXO4lwvP3-20" value="" style="endArrow=classic;html=1;rounded=0;entryX=0;entryY=0.5;entryDx=0;entryDy=0;" edge="1" parent="1" target="AnCnLKGEOdJfXO4lwvP3-9">
          <mxGeometry width="50" height="50" relative="1" as="geometry">
            <mxPoint x="180" y="340" as="sourcePoint" />
            <mxPoint x="490" y="200" as="targetPoint" />
          </mxGeometry>
        </mxCell>
        <mxCell id="AnCnLKGEOdJfXO4lwvP3-21" value="" style="endArrow=classic;html=1;rounded=0;entryX=0;entryY=0.5;entryDx=0;entryDy=0;" edge="1" parent="1" target="AnCnLKGEOdJfXO4lwvP3-10">
          <mxGeometry width="50" height="50" relative="1" as="geometry">
            <mxPoint x="80" y="120" as="sourcePoint" />
            <mxPoint x="500" y="210" as="targetPoint" />
          </mxGeometry>
        </mxCell>
        <mxCell id="AnCnLKGEOdJfXO4lwvP3-22" value="" style="endArrow=classic;html=1;rounded=0;entryX=0;entryY=0.5;entryDx=0;entryDy=0;" edge="1" parent="1" target="AnCnLKGEOdJfXO4lwvP3-7">
          <mxGeometry width="50" height="50" relative="1" as="geometry">
            <mxPoint x="80" y="380" as="sourcePoint" />
            <mxPoint x="510" y="220" as="targetPoint" />
          </mxGeometry>
        </mxCell>
        <mxCell id="AnCnLKGEOdJfXO4lwvP3-23" value="" style="endArrow=classic;html=1;rounded=0;" edge="1" parent="1" target="AnCnLKGEOdJfXO4lwvP3-29">
          <mxGeometry width="50" height="50" relative="1" as="geometry">
            <mxPoint x="200" y="430" as="sourcePoint" />
            <mxPoint x="520" y="230" as="targetPoint" />
          </mxGeometry>
        </mxCell>
        <mxCell id="AnCnLKGEOdJfXO4lwvP3-24" value="" style="endArrow=classic;html=1;rounded=0;entryX=0;entryY=0.5;entryDx=0;entryDy=0;" edge="1" parent="1" target="AnCnLKGEOdJfXO4lwvP3-28">
          <mxGeometry width="50" height="50" relative="1" as="geometry">
            <mxPoint x="280" y="480" as="sourcePoint" />
            <mxPoint x="530" y="240" as="targetPoint" />
          </mxGeometry>
        </mxCell>
        <mxCell id="AnCnLKGEOdJfXO4lwvP3-25" value="" style="endArrow=classic;html=1;rounded=0;" edge="1" parent="1" target="AnCnLKGEOdJfXO4lwvP3-34">
          <mxGeometry width="50" height="50" relative="1" as="geometry">
            <mxPoint x="280" y="580" as="sourcePoint" />
            <mxPoint x="540" y="250" as="targetPoint" />
          </mxGeometry>
        </mxCell>
        <mxCell id="AnCnLKGEOdJfXO4lwvP3-26" value="" style="endArrow=classic;html=1;rounded=0;" edge="1" parent="1" target="AnCnLKGEOdJfXO4lwvP3-33">
          <mxGeometry width="50" height="50" relative="1" as="geometry">
            <mxPoint x="280" y="660" as="sourcePoint" />
            <mxPoint x="550" y="260" as="targetPoint" />
          </mxGeometry>
        </mxCell>
        <mxCell id="AnCnLKGEOdJfXO4lwvP3-27" value="" style="endArrow=classic;html=1;rounded=0;" edge="1" parent="1" target="AnCnLKGEOdJfXO4lwvP3-32">
          <mxGeometry width="50" height="50" relative="1" as="geometry">
            <mxPoint x="360" y="520" as="sourcePoint" />
            <mxPoint x="560" y="270" as="targetPoint" />
          </mxGeometry>
        </mxCell>
        <mxCell id="AnCnLKGEOdJfXO4lwvP3-28" value="data" style="rounded=1;whiteSpace=wrap;html=1;" vertex="1" parent="1">
          <mxGeometry x="320" y="470" width="120" height="20" as="geometry" />
        </mxCell>
        <mxCell id="AnCnLKGEOdJfXO4lwvP3-29" value="home" style="rounded=1;whiteSpace=wrap;html=1;" vertex="1" parent="1">
          <mxGeometry x="240" y="420" width="120" height="20" as="geometry" />
        </mxCell>
        <mxCell id="AnCnLKGEOdJfXO4lwvP3-30" value="repo" style="rounded=1;whiteSpace=wrap;html=1;" vertex="1" parent="1">
          <mxGeometry x="400" y="540" width="120" height="20" as="geometry" />
        </mxCell>
        <mxCell id="AnCnLKGEOdJfXO4lwvP3-31" value="Features" style="rounded=1;whiteSpace=wrap;html=1;" vertex="1" parent="1">
          <mxGeometry x="690" y="460" width="120" height="60" as="geometry" />
        </mxCell>
        <mxCell id="AnCnLKGEOdJfXO4lwvP3-32" value="models" style="rounded=1;whiteSpace=wrap;html=1;" vertex="1" parent="1">
          <mxGeometry x="400" y="510" width="120" height="20" as="geometry" />
        </mxCell>
        <mxCell id="AnCnLKGEOdJfXO4lwvP3-33" value="ui" style="rounded=1;whiteSpace=wrap;html=1;" vertex="1" parent="1">
          <mxGeometry x="320" y="650" width="120" height="20" as="geometry" />
        </mxCell>
        <mxCell id="AnCnLKGEOdJfXO4lwvP3-34" value="logic" style="rounded=1;whiteSpace=wrap;html=1;" vertex="1" parent="1">
          <mxGeometry x="320" y="570" width="120" height="20" as="geometry" />
        </mxCell>
        <mxCell id="AnCnLKGEOdJfXO4lwvP3-35" value="" style="endArrow=none;html=1;rounded=0;entryX=0.417;entryY=1;entryDx=0;entryDy=0;entryPerimeter=0;" edge="1" parent="1" target="AnCnLKGEOdJfXO4lwvP3-1">
          <mxGeometry width="50" height="50" relative="1" as="geometry">
            <mxPoint x="80" y="670" as="sourcePoint" />
            <mxPoint x="450" y="100" as="targetPoint" />
          </mxGeometry>
        </mxCell>
        <mxCell id="AnCnLKGEOdJfXO4lwvP3-36" value="Features" style="rounded=1;whiteSpace=wrap;html=1;" vertex="1" parent="1">
          <mxGeometry x="660" y="610" width="120" height="60" as="geometry" />
        </mxCell>
        <mxCell id="AnCnLKGEOdJfXO4lwvP3-37" value="screen &amp;amp; widget" style="rounded=1;whiteSpace=wrap;html=1;" vertex="1" parent="1">
          <mxGeometry x="400" y="700" width="120" height="20" as="geometry" />
        </mxCell>
        <mxCell id="AnCnLKGEOdJfXO4lwvP3-38" value="cubit &amp;amp; state" style="rounded=1;whiteSpace=wrap;html=1;" vertex="1" parent="1">
          <mxGeometry x="400" y="610" width="120" height="20" as="geometry" />
        </mxCell>
        <mxCell id="AnCnLKGEOdJfXO4lwvP3-39" value="" style="endArrow=none;html=1;rounded=0;entryX=0.408;entryY=1.05;entryDx=0;entryDy=0;entryPerimeter=0;" edge="1" parent="1" target="AnCnLKGEOdJfXO4lwvP3-7">
          <mxGeometry width="50" height="50" relative="1" as="geometry">
            <mxPoint x="200" y="740" as="sourcePoint" />
            <mxPoint x="450" y="460" as="targetPoint" />
          </mxGeometry>
        </mxCell>
        <mxCell id="AnCnLKGEOdJfXO4lwvP3-40" value="" style="endArrow=none;html=1;rounded=0;" edge="1" parent="1">
          <mxGeometry width="50" height="50" relative="1" as="geometry">
            <mxPoint x="280" y="444" as="sourcePoint" />
            <mxPoint x="280" y="780" as="targetPoint" />
          </mxGeometry>
        </mxCell>
        <mxCell id="AnCnLKGEOdJfXO4lwvP3-42" value="" style="endArrow=none;html=1;rounded=0;entryX=0.35;entryY=1.1;entryDx=0;entryDy=0;entryPerimeter=0;" edge="1" parent="1" target="AnCnLKGEOdJfXO4lwvP3-28">
          <mxGeometry width="50" height="50" relative="1" as="geometry">
            <mxPoint x="360" y="560" as="sourcePoint" />
            <mxPoint x="450" y="470" as="targetPoint" />
          </mxGeometry>
        </mxCell>
        <mxCell id="AnCnLKGEOdJfXO4lwvP3-43" value="" style="endArrow=classic;html=1;rounded=0;" edge="1" parent="1" target="AnCnLKGEOdJfXO4lwvP3-30">
          <mxGeometry width="50" height="50" relative="1" as="geometry">
            <mxPoint x="360" y="550" as="sourcePoint" />
            <mxPoint x="570" y="280" as="targetPoint" />
          </mxGeometry>
        </mxCell>
        <mxCell id="AnCnLKGEOdJfXO4lwvP3-44" value="" style="endArrow=classic;html=1;rounded=0;" edge="1" parent="1">
          <mxGeometry width="50" height="50" relative="1" as="geometry">
            <mxPoint x="530" y="340" as="sourcePoint" />
            <mxPoint x="580" y="290" as="targetPoint" />
          </mxGeometry>
        </mxCell>
        <mxCell id="AnCnLKGEOdJfXO4lwvP3-45" value="" style="endArrow=classic;html=1;rounded=0;" edge="1" parent="1">
          <mxGeometry width="50" height="50" relative="1" as="geometry">
            <mxPoint x="540" y="350" as="sourcePoint" />
            <mxPoint x="590" y="300" as="targetPoint" />
          </mxGeometry>
        </mxCell>
        <mxCell id="AnCnLKGEOdJfXO4lwvP3-46" value="" style="endArrow=classic;html=1;rounded=0;" edge="1" parent="1">
          <mxGeometry width="50" height="50" relative="1" as="geometry">
            <mxPoint x="550" y="360" as="sourcePoint" />
            <mxPoint x="600" y="310" as="targetPoint" />
          </mxGeometry>
        </mxCell>
        <mxCell id="AnCnLKGEOdJfXO4lwvP3-47" value="" style="endArrow=classic;html=1;rounded=0;" edge="1" parent="1">
          <mxGeometry width="50" height="50" relative="1" as="geometry">
            <mxPoint x="560" y="370" as="sourcePoint" />
            <mxPoint x="610" y="320" as="targetPoint" />
          </mxGeometry>
        </mxCell>
        <mxCell id="AnCnLKGEOdJfXO4lwvP3-48" value="" style="endArrow=classic;html=1;rounded=0;" edge="1" parent="1">
          <mxGeometry width="50" height="50" relative="1" as="geometry">
            <mxPoint x="570" y="380" as="sourcePoint" />
            <mxPoint x="620" y="330" as="targetPoint" />
          </mxGeometry>
        </mxCell>
        <mxCell id="AnCnLKGEOdJfXO4lwvP3-49" value="" style="endArrow=classic;html=1;rounded=0;" edge="1" parent="1">
          <mxGeometry width="50" height="50" relative="1" as="geometry">
            <mxPoint x="580" y="390" as="sourcePoint" />
            <mxPoint x="630" y="340" as="targetPoint" />
          </mxGeometry>
        </mxCell>
        <mxCell id="AnCnLKGEOdJfXO4lwvP3-50" value="" style="endArrow=none;html=1;rounded=0;entryX=0.333;entryY=1.05;entryDx=0;entryDy=0;entryPerimeter=0;" edge="1" parent="1" target="AnCnLKGEOdJfXO4lwvP3-34">
          <mxGeometry width="50" height="50" relative="1" as="geometry">
            <mxPoint x="360" y="640" as="sourcePoint" />
            <mxPoint x="370" y="595" as="targetPoint" />
          </mxGeometry>
        </mxCell>
        <mxCell id="AnCnLKGEOdJfXO4lwvP3-51" value="" style="endArrow=classic;html=1;rounded=0;entryX=0;entryY=0.5;entryDx=0;entryDy=0;" edge="1" parent="1" target="AnCnLKGEOdJfXO4lwvP3-37">
          <mxGeometry width="50" height="50" relative="1" as="geometry">
            <mxPoint x="360" y="710" as="sourcePoint" />
            <mxPoint x="640" y="350" as="targetPoint" />
          </mxGeometry>
        </mxCell>
        <mxCell id="AnCnLKGEOdJfXO4lwvP3-52" value="" style="endArrow=classic;html=1;rounded=0;" edge="1" parent="1" target="AnCnLKGEOdJfXO4lwvP3-38">
          <mxGeometry width="50" height="50" relative="1" as="geometry">
            <mxPoint x="360" y="620" as="sourcePoint" />
            <mxPoint x="650" y="360" as="targetPoint" />
          </mxGeometry>
        </mxCell>
        <mxCell id="AnCnLKGEOdJfXO4lwvP3-53" value="" style="endArrow=none;html=1;rounded=0;" edge="1" parent="1">
          <mxGeometry width="50" height="50" relative="1" as="geometry">
            <mxPoint x="660" y="300" as="sourcePoint" />
            <mxPoint x="710" y="250" as="targetPoint" />
          </mxGeometry>
        </mxCell>
        <mxCell id="AnCnLKGEOdJfXO4lwvP3-54" value="" style="endArrow=none;html=1;rounded=0;" edge="1" parent="1">
          <mxGeometry width="50" height="50" relative="1" as="geometry">
            <mxPoint x="600" y="270" as="sourcePoint" />
            <mxPoint x="650" y="220" as="targetPoint" />
          </mxGeometry>
        </mxCell>
        <mxCell id="AnCnLKGEOdJfXO4lwvP3-55" value="" style="endArrow=none;html=1;rounded=0;exitX=0.35;exitY=1.1;exitDx=0;exitDy=0;exitPerimeter=0;" edge="1" parent="1" source="AnCnLKGEOdJfXO4lwvP3-33">
          <mxGeometry width="50" height="50" relative="1" as="geometry">
            <mxPoint x="430" y="470" as="sourcePoint" />
            <mxPoint x="362" y="800" as="targetPoint" />
          </mxGeometry>
        </mxCell>
      </root>
    </mxGraphModel>
  </diagram>
</mxfile>
